<svg width="76" height="48" viewBox="0 0 76 48" fill="none" xmlns="http://www.w3.org/2000/svg">
<path d="M70.8392 20.7577C66.8839 16.5444 62.6706 12.5031 58.4573 8.54771C55.4478 5.79616 51.9223 5.02228 48.053 6.65602C47.0211 7.08595 46.0753 7.60186 45.0434 8.03179C41.776 9.49356 38.3365 10.0095 34.7251 9.49356C32.5755 9.06363 30.5978 8.20377 28.7061 7.25792C26.3845 6.05412 24.0629 5.5382 21.4833 6.05412C19.4196 6.48405 17.6999 7.42989 16.2381 8.89165C12.6267 12.4171 9.10129 16.1145 5.48988 19.5539C1.10459 23.6812 -0.701115 28.5825 0.244731 34.4295C1.53452 42.6842 8.75735 48.3592 17.098 47.9293C23.289 47.4994 27.7603 44.4899 30.6838 38.9868C30.9417 38.4708 31.1997 37.9549 31.4577 37.353C35.1551 40.9644 40.3142 40.7925 43.7537 37.353C43.9256 37.697 44.0116 37.8689 44.0976 38.1269C47.1931 45.1777 54.5879 49.2191 62.0687 47.6713C68.2597 46.3816 72.473 42.6842 74.3647 36.6651C76.3424 30.7321 75.0526 25.315 70.8392 20.7577ZM16.1521 44.5758C9.18728 44.5758 3.5122 38.8148 3.42621 31.7639C3.42621 24.7991 9.10129 19.124 16.2381 19.038C23.117 19.038 28.9641 24.7131 28.9641 31.6779C29.05 38.8148 23.375 44.4899 16.1521 44.5758ZM36.1869 13.9648C36.1869 13.191 36.7888 12.5031 37.6486 12.5031C38.5085 12.5031 39.1964 13.191 39.1964 13.9648V19.4679C39.1964 20.3278 38.5085 21.0157 37.6486 21.0157C36.8748 21.0157 36.1869 20.3278 36.1869 19.4679V13.9648ZM37.5627 35.6333C35.499 35.5473 33.6933 33.7416 33.7793 31.6779C33.8653 29.6143 35.585 27.8946 37.6486 27.8946C39.7123 27.8946 41.518 29.7003 41.432 31.8499C41.432 33.9136 39.7123 35.6333 37.5627 35.6333ZM58.8012 44.5758C51.7504 44.4039 46.0753 38.5568 46.2472 31.506C46.3332 24.4551 52.1803 18.866 59.3171 18.952C66.196 19.124 71.8711 24.971 71.7851 31.7639C71.6131 38.9868 65.938 44.6618 58.8012 44.5758ZM46.2472 4.85031C48.2249 3.90447 50.2026 3.21658 52.4382 3.47454C53.1261 3.56052 53.728 3.64651 54.4159 3.73249C53.2981 0.980942 50.0306 -0.566807 47.0211 0.207068C44.0116 0.980942 41.862 3.81848 42.2059 6.65602C43.5817 6.05412 44.9575 5.45221 46.2472 4.85031ZM25.0947 3.56052C27.2443 3.73249 29.136 4.76433 31.0277 5.62419C31.7156 5.96813 32.4035 6.22609 33.0914 6.48405C33.1774 3.47454 30.9417 0.722984 27.9322 0.121082C25.0087 -0.480821 21.7412 1.2389 20.9674 3.56052C22.3431 3.56052 23.7189 3.47454 25.0947 3.56052ZM66.6259 24.7991C70.3233 28.4965 70.2373 34.0856 67.8297 37.267C68.0877 33.2257 67.0559 29.8722 64.3903 27.1207C61.6387 24.3691 58.2853 23.3373 54.4159 23.5093C57.4254 21.2736 62.9285 21.1017 66.6259 24.7991ZM8.49939 25.487C5.05995 29.6143 6.00579 35.1174 7.89749 37.0951C7.63953 33.2257 8.67136 29.8722 11.4229 27.1207C14.0885 24.4551 17.4419 23.3373 21.3973 23.5093C18.1298 21.1017 12.1108 21.1017 8.49939 25.487Z" fill="#008000"/>
</svg>
